<?xml version="1.0" encoding="utf-8"?>
<!-- Generator: Adobe Illustrator 16.0.0, SVG Export Plug-In . SVG Version: 6.00 Build 0)  -->
<!DOCTYPE svg PUBLIC "-//W3C//DTD SVG 1.1//EN" "http://www.w3.org/Graphics/SVG/1.1/DTD/svg11.dtd">
<svg version="1.1" xmlns="http://www.w3.org/2000/svg" xmlns:xlink="http://www.w3.org/1999/xlink" x="0px" y="0px" width="3330px"
	 height="1950px" viewBox="0 0 3330 1950" enable-background="new 0 0 3330 1950" xml:space="preserve">
<g id="Испания">
	<polygon fill="#F9B120" stroke="#000000" stroke-width="0.2" stroke-miterlimit="10" points="1570.25,803.643 1569.167,803.643 
		1568.292,803.375 1568.125,802.71 1568.708,802.543 1568.5,802.002 1567.625,802.002 1567.417,801.793 1568.083,801.25 
		1568.333,799.833 1568.333,798.667 1567.833,798.063 1567.583,797.394 1568.333,796.894 1569.146,795.269 1570.5,794.667 
		1570.917,795 1572,794.792 1573,794.292 1573.854,794.333 1574.583,793.5 1574.833,792.297 1575.25,792.297 1575.667,792.75 
		1576.625,791.792 1578.208,791.792 1580.292,794.583 1580.292,795.625 1580.188,796.438 1579.979,797.833 1577.75,797.875 
		1576.938,798.521 1576.146,798.646 1575.458,799.292 1573.854,799.354 1573.167,800.063 1572.896,800.063 1572.521,800.75 
		1571.583,800.729 1571.396,801.292 1571.458,802.083 1572,802.208 1572.333,802.313 1572.563,803.021 1572.333,803.833 
		1570.917,804.021 	"/>
	<polygon fill="#F9B120" stroke="#000000" stroke-width="0.2" stroke-miterlimit="10" points="1514.722,808.297 1514.188,808.25 
		1514.063,807.531 1513.719,807.531 1513.125,808.075 1511.969,808.075 1510.656,806.313 1509.438,806.153 1507.781,807.219 
		1506.75,808.075 1504.25,808.075 1503.875,807.763 1504.016,807.341 1504.016,806.757 1503.516,806.153 1503.594,805.763 
		1503.938,805.591 1504.016,804.903 1503.734,804.794 1503.656,804.513 1503.734,804.263 1503.766,803.247 1503.609,802.575 
		1503.75,802.028 1503.813,801.341 1503.453,800.638 1503.063,800.106 1502.688,799.716 1502.734,799.466 1503.094,799.466 
		1503.625,799.388 1504.016,799.341 1504.25,798.966 1504.25,798.403 1504.547,797.95 1505.063,797.575 1505.313,797.06 
		1506.047,797.044 1506.531,796.903 1506.922,796.387 1507.563,796.844 1508.705,796.844 1510,796.531 1510.719,797.122 
		1512.344,797.341 1512.5,797.844 1513.25,798 1513.625,797.531 1513.594,797.122 1515.719,797.122 1516.563,797.531 
		1517.813,798.188 1518.094,798.699 1519.344,799.063 1519.5,799.469 1519.156,799.625 1519.188,800.063 1519.5,800.219 
		1519.5,800.656 1519.156,801.031 1519.156,801.281 1519.5,801.5 1519.5,801.875 1518.938,801.938 1518.969,803.135 
		1517.594,804.844 1516.938,805.063 1516.938,805.563 1517.469,805.75 1517.469,806.153 1517.188,806.281 1517.156,806.625 
		1516.719,806.757 1516.25,806.594 1516.25,806.281 1515.875,806.313 1514.844,807.719 	"/>
	<polygon fill="#F9B120" stroke="#000000" stroke-width="0.2" stroke-miterlimit="10" points="1497.508,764.75 1498.125,765.188 
		1498.594,765.875 1499.031,766.063 1499.531,766.063 1499.844,765.406 1502.188,766.063 1505.188,766.219 1505.406,766.656 
		1502.75,768.938 1502.094,769.281 1502,770.031 1502.656,770.313 1502.969,771.063 1502.688,771.844 1503.25,772.906 
		1503.984,773.75 1504.75,773.75 1505.188,773.5 1505.406,773.75 1505.406,774.375 1504.531,774.375 1503.984,774.813 
		1503.984,775.625 1504.969,776.188 1504.969,776.594 1504.406,777.844 1503.625,778.313 1502.906,778.313 1502.656,780.219 
		1502.875,781.188 1503.063,781.875 1502.688,782.813 1501.781,783.688 1501.063,783.719 1500.438,783.281 1499,783.375 
		1498.344,784.016 1497.813,783.875 1496.844,782.5 1496.008,782.5 1495.156,781.5 1494.375,780.969 1494.5,779.969 
		1495.125,779.438 1495.125,778.313 1493.875,777.094 1494.813,776 1495.219,775.688 1495.125,775 1494.813,774.656 
		1494.813,774.094 1495.125,773.719 1495.25,773.344 1494.813,773.094 1494.813,772.156 1495.219,770.656 1496.406,768.625 
		1496.469,767.406 1496.656,765.969 1497.156,765.125 	"/>
	<polygon fill="#F9B120" stroke="#000000" stroke-width="0.2" stroke-miterlimit="10" points="1505.625,846.375 1505.625,847.313 
		1505.125,847.5 1506.844,849.5 1507.531,849.656 1507.531,850.5 1506.906,850.5 1509.063,854.25 1509.531,854.25 1510.438,854.094 
		1510.438,854.688 1511.344,855.375 1512.531,855.375 1512.875,856.031 1513.875,856.031 1514.75,854.563 1515.688,853.979 
		1516.896,852.313 1516.896,851.604 1516.104,851.479 1515.542,851.375 1515.438,850.563 1514.417,850.25 1513.333,850.375 
		1513.292,849.854 1514.083,849.688 1515.854,848.708 1516.208,848.125 1516.188,846.167 1516.396,845.833 1516.896,845.833 
		1517.104,846.125 1517.75,846.083 1517.75,845.333 1517.313,845.083 1516.708,845.021 1516.333,844.438 1515.854,844.479 
		1515.583,845.125 1514.958,845.188 1514.708,844.5 1514.188,844.521 1514.229,845.542 1514.146,845.854 1513.563,845.854 
		1513.396,845.354 1513,845.354 1512.771,844.938 1512.417,844.979 1512.208,845.354 1511.172,845.375 1510.313,846.375 
		1509.042,846.375 1508.458,845.396 1507.104,845.417 1506.167,845.653 1505.792,846.375 	"/>
	<polygon fill="#F9B120" stroke="#000000" stroke-width="0.2" stroke-miterlimit="10" points="1516.896,851.604 1515.542,851.375 
		1515.438,850.563 1514.417,850.25 1513.333,850.375 1513.292,849.854 1514.083,849.688 1515.854,848.708 1516.208,848.125 
		1516.188,846.167 1516.396,845.833 1516.896,845.833 1517.104,846.125 1517.75,846.083 1517.75,845.333 1517.313,845.083 
		1517.688,844.188 1518.604,843.854 1519.375,842.813 1521.458,842.313 1522,842.313 1522.167,842.668 1522.688,842.668 
		1522.833,842.313 1523.417,842.313 1523.583,841.793 1524.333,841.793 1524.229,842.584 1525.063,843.229 1525.063,844.709 
		1527.271,846.375 1528,846.375 1528,846.698 1529.083,846.698 1529.292,847.209 1529.958,847.188 1530.083,847.979 
		1530.083,848.828 1528.453,848.813 1528.313,848.453 1526.938,848.469 1526.797,848.844 1526.281,848.828 1526.109,848.438 
		1525.563,848.469 1525.406,848.813 1524.984,849.203 1524.719,850 1521.688,851.75 1520.854,851.75 1520.166,851.125 
		1519.521,851.125 1518.125,851.292 	"/>
	<polygon fill="#F9B120" stroke="#000000" stroke-width="0.2" stroke-miterlimit="10" points="1519.594,784.625 1520.156,784.625 
		1520.75,783.531 1520.688,776.281 1521.198,774.992 1522.625,776.563 1523.531,776.563 1523.781,776.031 1525.688,776.188 
		1526.844,776.875 1527.438,778.125 1527.438,779.373 1526.457,779.809 1525.957,781.415 1525.873,782.707 1526.582,784.016 
		1526.957,785.71 1527.207,786.54 1528.207,786.797 1528.864,787.332 1529.54,788.248 1528.864,788.998 1528.082,789.79 
		1526.415,789.957 1525.415,790.29 1524.79,790.29 1524.332,789.748 1523.582,789.998 1523.165,788.915 1522.665,788.915 
		1522.29,789.748 1521.498,789.748 1520.998,789.04 1520.248,788.915 1520.248,788.04 1520.813,787.707 1520.813,786.54 
		1520.123,786.498 1520.123,785.71 1519.729,785.71 	"/>
	<polygon fill="#F9B120" stroke="#000000" stroke-width="0.2" stroke-miterlimit="10" points="1523.781,767.938 1525.813,768.375 
		1526.75,767.938 1527.5,766.833 1529.167,766.833 1530,768 1530.552,768 1531.333,766.833 1534.083,766.833 1534.417,768 
		1536.708,767.943 1536.581,768.469 1536.167,770.167 1534.5,770.167 1533.75,771 1534.417,772.417 1533.083,772.417 1531,772.75 
		1530.349,774 1528.583,775.695 1529.167,776.594 1530.349,776.594 1531.167,777.25 1530.349,778.083 1529.406,778.083 
		1529.031,777.719 1528.406,777.688 1528.344,778.75 1527.438,778.125 1526.844,776.875 1525.688,776.188 1523.781,776.031 
		1523.531,776.563 1522.625,776.563 1521.198,774.992 1521.938,773.125 1520.813,771.396 1522.156,769.688 1523.125,769.531 	"/>
	<polygon fill="#F9B120" stroke="#000000" stroke-width="0.2" stroke-miterlimit="10" points="1530.083,848.828 1532.083,848.583 
		1532.75,849.083 1533.75,849.083 1534.25,848.583 1535.958,848.583 1536.208,848.25 1536.417,847.583 1537,847.375 1537,847 
		1536.667,846.771 1536.792,846.375 1537.792,845.833 1538.042,845.333 1537.417,845.083 1537.375,844.438 1539.333,843.083 
		1539.333,842.25 1540.333,842.042 1541.042,842.833 1541.375,842.708 1541.583,841.793 1541.583,840.5 1542.667,839.458 
		1543.917,839.083 1543.917,838.083 1544.958,836.958 1544.542,835.563 1545.333,834.958 1544.542,834 1544.375,833.667 
		1543.417,833.667 1542.667,832.708 1542.125,832.708 1541.833,833.208 1542.167,833.75 1541.958,834.125 1540.625,834.125 
		1538.917,836.417 1539.125,837.542 1537.292,838.5 1536.5,838.625 1536.458,837.958 1535.417,838.042 1534.708,838.75 
		1533.583,838.792 1532.958,838.417 1531.542,839.333 1530.375,839.375 1529.792,839.792 1529.417,840.583 1527.833,840.625 
		1527.625,840.292 1526.958,840.458 1526.958,840.896 1526.042,841.167 1525.063,843.229 1525.063,844.709 1527.271,846.375 
		1528,846.375 1528,846.698 1529.083,846.698 1529.292,847.209 1529.958,847.188 1530.083,847.979 	"/>
	<polygon fill="#F9B120" stroke="#000000" stroke-width="0.2" stroke-miterlimit="10" points="1527.625,840.292 1526.958,840.458 
		1526.958,840.896 1526.042,841.167 1525.063,843.229 1524.229,842.584 1524.333,841.793 1523.583,841.793 1523.417,842.313 
		1522.833,842.313 1522.688,842.668 1522.167,842.668 1522,842.313 1521.458,842.313 1521.25,841.021 1519.594,840.153 
		1519.344,839.431 1518.594,839.431 1517.469,840.438 1516.688,840.438 1516.531,839.969 1516.781,839.431 1517.469,839.431 
		1518.031,838.813 1516.969,837.688 1516.688,836.406 1515.75,835.188 1515.75,834.156 1515.313,833.396 1515.771,833.208 
		1515.771,832.479 1515.479,832.208 1515.417,831.292 1515.188,831.083 1515.125,830.646 1516.792,829.479 1516.938,828.604 
		1517.771,828.646 1518.354,827.729 1518.563,827.021 1519.542,826.938 1522.625,828.208 1524.583,829.417 1526.042,830.125 
		1526.167,831.5 1526.542,832.417 1525.708,833.5 1525.625,835.084 1525.063,835.563 1525.063,836.125 1526.042,836.606 
		1526.625,838.625 	"/>
	<polygon fill="#F9B120" stroke="#000000" stroke-width="0.2" stroke-miterlimit="10" points="1526.042,830.125 1526.167,831.5 
		1526.542,832.417 1525.708,833.5 1525.625,835.084 1525.063,835.563 1525.063,836.125 1526.042,836.606 1526.625,838.625 
		1527.625,840.292 1527.833,840.625 1529.417,840.583 1529.792,839.792 1530.375,839.375 1531.542,839.333 1532.958,838.417 
		1533.583,838.792 1534.708,838.75 1535.417,838.042 1536.458,837.958 1536.5,838.625 1537.292,838.5 1539.125,837.542 
		1538.917,836.417 1540.625,834.125 1541.958,834.125 1542.167,833.75 1541.833,833.208 1542.125,832.708 1542.667,832.708 
		1543.094,832.094 1543.375,831.188 1543.719,830.813 1543.719,830.313 1543.219,830.125 1543.031,829.375 1542.313,828.938 
		1542.219,828.063 1541.75,827.906 1541.469,828.188 1541,828.219 1540.844,827.906 1540.063,827.906 1539.531,828.656 
		1538.375,828.625 1538.156,829.125 1537.594,829.063 1537.594,828.688 1537,828.656 1536.844,828.875 1536.344,828.875 
		1535.938,828.281 1534.594,828.406 1534,829.094 1533.063,829.094 1533,828.781 1532.438,828.813 1532.156,829.344 
		1531.375,829.313 1531.031,828.813 1530.552,828.813 1530.083,829.344 1529.5,829.375 1529.406,829.594 1529.031,829.625 
		1528.813,829.406 1527.625,829.313 1527.406,829.625 1527.063,829.625 1526.875,829.25 1525.563,829.344 1525.568,829.896 	"/>
	<polygon fill="#F9B120" stroke="#000000" stroke-width="0.2" stroke-miterlimit="10" points="1522.906,819.031 1522.672,819.922 
		1522.328,820.141 1522.422,821.234 1522.672,821.219 1522.672,821.828 1521.641,821.984 1521.266,822.391 1521.563,822.958 
		1521.391,823.375 1520.359,823.422 1520.453,824.094 1521.438,824.922 1521.563,825.453 1520.609,825.594 1519.542,826.938 
		1522.625,828.208 1525.568,829.896 1525.563,829.344 1526.875,829.25 1527.063,829.625 1527.406,829.625 1527.625,829.313 
		1528.813,829.406 1529.031,829.625 1529.406,829.594 1529.5,829.375 1530.083,829.344 1530.552,828.813 1531.031,828.813 
		1531.375,829.313 1532.156,829.344 1532.438,828.813 1533,828.781 1533.063,829.094 1534,829.094 1534.594,828.406 
		1535.938,828.281 1536.344,828.875 1536.844,828.875 1537,828.656 1537.594,828.688 1537.594,829.063 1538.156,829.125 
		1538.375,828.625 1539.531,828.656 1540.063,827.906 1540.563,827.156 1541.297,826.766 1541.656,826.219 1541.656,825.406 
		1541.141,824.672 1540.313,824.594 1540.25,823.828 1539.656,823.656 1539.422,823.313 1539.375,822.75 1539.797,822.359 
		1539.688,820.453 1540.484,819.391 1540.563,818.438 1540,817.953 1539.094,817.953 1538.516,817.234 1537.156,817.422 
		1536.828,816.563 1535.766,816.563 1533.094,818.453 1531.719,818.719 1531.422,819.25 1530.688,819.281 1530.599,818.938 
		1529.828,819.031 1529.797,819.281 1529.078,819.234 1528.688,818.391 1528.484,817.75 1527.703,817.813 1527.703,818.188 
		1527.063,818.172 1527,817.5 1527.969,816.563 1528.031,815.688 1526.828,815.766 1526.266,816.656 1525.594,816.781 
		1525.063,816.313 1524.229,816.313 1523.333,817.542 	"/>
	<polygon fill="#F9B120" stroke="#000000" stroke-width="0.2" stroke-miterlimit="10" points="1536.208,848.25 1536.417,847.583 
		1537,847.375 1537,847 1536.667,846.771 1536.792,846.375 1537.792,845.833 1538.042,845.333 1537.417,845.083 1537.375,844.438 
		1539.333,843.083 1539.333,842.25 1540.333,842.042 1541.042,842.833 1541.375,842.708 1541.583,841.793 1541.583,840.5 
		1542.667,839.458 1543.917,839.083 1543.917,838.083 1544.958,836.958 1544.542,835.563 1545.333,834.958 1546.469,835.219 
		1547.656,835.438 1547.844,835.875 1547.438,836.031 1547.438,837.969 1548.844,839.469 1550.313,839.875 1551.406,841.094 
		1550.063,842.438 1549.906,843.625 1549.344,844.125 1549.344,845.188 1548.719,845.938 1548.063,846.219 1547.063,847.906 
		1546.313,848.25 1545.531,848.25 1545.5,847.688 1544.813,847.188 1544.25,847.063 1544.094,847.313 1542.625,847.281 
		1542.063,847.844 1542.063,848.25 1541.469,848.844 1539.781,848.844 1539,848.188 1538.438,848.156 1538.375,848.375 	"/>
	<polygon fill="#F9B120" stroke="#000000" stroke-width="0.2" stroke-miterlimit="10" points="1559.422,835.391 1558.609,835.156 
		1558.172,834.547 1558.094,833.75 1557.094,833.125 1556.984,832.078 1557.563,831.734 1557.531,830.25 1556.609,830 
		1556.453,829.219 1556.984,828.969 1556.938,828.047 1557.297,827.875 1557.266,827.547 1557,827.328 1556.906,826.752 
		1557.75,826.156 1557.938,825.344 1558.563,825.125 1558.656,825.5 1559.422,825.469 1559.422,825.125 1560.125,825.125 
		1560.125,825.563 1560.531,825.5 1560.781,825.844 1561.344,825.688 1561.344,824.906 1562.094,824.375 1563.344,824.375 
		1563.563,823.781 1565.031,823.781 1565.313,823.313 1566.094,823.313 1566.469,823.906 1567.75,823.906 1568.594,824.75 
		1568.75,825.344 1567.75,825.938 1566.281,826.969 1565.375,828.031 1564.281,827.969 1563.406,828.563 1562.813,829.781 
		1561.969,830.156 1561.938,831.438 1560.688,832.406 1560.688,833.219 1560.875,833.969 	"/>
	<polygon fill="#F9B120" stroke="#000000" stroke-width="0.2" stroke-miterlimit="10" points="1557.938,825.344 1557.75,823.156 
		1557.063,822.594 1556.453,822.719 1556.453,823.031 1555.781,822.906 1554.813,821.969 1554.813,821.031 1555.188,820.719 
		1555.219,819.438 1555.531,818.719 1554.813,818.719 1552.167,817.531 1552.167,816.427 1551.813,816.281 1551.813,815.813 
		1552.167,815.813 1552.938,814.969 1552.875,814.375 1553.563,814.375 1553.688,814.563 1554.156,814.563 1554.313,813.188 
		1554.875,812.906 1554.875,811.625 1555.375,811.094 1556.453,810.875 1557.219,811.156 1557.281,812.188 1558.219,812.313 
		1558.438,811.688 1559.156,811.844 1560.438,813.313 1561.813,813.375 1561.813,813.719 1562.344,813.625 1562.604,812.719 
		1563.469,812.719 1563.875,813.375 1564.531,813.406 1563.219,816.25 1563.219,817.563 1564.125,819.188 1564.219,820.938 
		1565.625,822.625 1565.625,823.313 1565.313,823.313 1565.031,823.781 1563.563,823.781 1563.344,824.375 1562.094,824.375 
		1561.344,824.906 1561.344,825.688 1560.781,825.844 1560.531,825.5 1560.125,825.563 1560.125,825.125 1559.422,825.125 
		1559.422,825.469 1558.656,825.5 1558.563,825.125 	"/>
	<polygon fill="#F9B120" stroke="#000000" stroke-width="0.2" stroke-miterlimit="10" points="1539.34,780.799 1539.521,781.521 
		1540.104,781.396 1540.167,780.729 1540.729,780.896 1541.146,782.021 1543.083,782.292 1545.167,782.641 1546.792,783.208 
		1548.125,784.375 1549.833,785.219 1549.833,786.083 1548.292,786.083 1547.792,786.797 1548.292,787.458 1547.542,788.497 
		1546.833,788.497 1545.667,787.792 1545.625,787.167 1545.958,786.797 1545.75,786.458 1542.875,786.25 1542.375,786.797 
		1542.083,787.583 1540.417,787.708 1540.333,787.167 1540.667,786.5 1540.042,786.583 1539.667,787.375 1539,787.5 
		1537.333,786.625 1537.333,785.71 1536.917,785.542 1536.917,785.219 1537.208,785.219 1537.25,783.75 1536.917,783.583 
		1536.917,783.25 1537.208,782.958 1537.208,782.292 1536.917,782.292 1536.917,781.667 1537.208,781.292 1537.5,780.729 	"/>
	<polygon fill="#F9B120" stroke="#000000" stroke-width="0.2" stroke-miterlimit="10" points="1528.082,789.79 1529.54,788.248 
		1528.864,787.332 1528.207,786.797 1527.207,786.54 1526.582,784.016 1525.873,782.707 1525.957,781.415 1526.457,779.809 
		1527.438,779.373 1527.438,778.125 1528.344,778.75 1528.406,777.688 1529.031,777.719 1529.406,778.083 1530.349,778.083 
		1531.167,777.25 1530.349,776.594 1529.167,776.594 1528.583,775.695 1530.349,774 1531,772.75 1533.083,772.417 1534.417,772.417 
		1535.969,773.109 1536.375,774.5 1536.604,776.125 1537.979,776.896 1538.042,777.604 1537.125,777.604 1536.917,777.208 
		1535.625,777.146 1535.396,777.5 1535.396,778.021 1535.813,778.042 1535.938,777.667 1536.333,777.646 1536.75,777.958 
		1536.75,779.021 1537.583,779.083 1537.979,779.688 1538.917,779.771 1539.25,780.438 1539.34,780.799 1537.5,780.729 
		1536.917,781.667 1536.917,782.292 1537.208,782.292 1537.208,782.958 1536.917,783.25 1536.917,783.583 1537.25,783.75 
		1537.208,785.219 1536.917,785.219 1536.917,785.542 1537.333,785.71 1537.333,786.625 1539,787.5 1538.917,788 1536.917,789.513 
		1536.917,790.622 1536.292,790.622 1536.167,789.958 1535.708,790 1535.792,790.622 1534.542,791.458 1533.75,791.703 
		1533.208,792.75 1532.125,792.75 1532,793.708 1530.958,793.481 1529.75,792.875 1528.864,791.417 1528.083,790.622 	"/>
	<polygon fill="#F9B120" stroke="#000000" stroke-width="0.2" stroke-miterlimit="10" points="1517.813,798.188 1517.891,797.438 
		1518.109,796.685 1518.109,795.766 1517.813,795.391 1517.781,795.031 1518.016,794.906 1518.109,794.328 1518.391,793.922 
		1518.391,793.25 1518.047,793 1517.984,792.438 1517.797,792.156 1517.781,791.203 1518.391,790.813 1518.391,790.016 
		1518.141,789.922 1518.078,789.359 1518.313,789.156 1518.219,788.497 1517.984,787.906 1517.75,787.484 1517.469,787.484 
		1517.281,787.75 1516.969,787.766 1516.625,787.484 1515.969,786.797 1516.844,786.469 1517.594,785.219 1518.969,784.625 
		1519.594,784.625 1519.729,785.71 1520.123,785.71 1520.123,786.498 1520.813,786.54 1520.813,787.707 1520.248,788.04 
		1520.248,788.915 1520.998,789.04 1521.498,789.748 1522.29,789.748 1522.665,788.915 1523.165,788.915 1523.582,789.998 
		1524.332,789.748 1524.79,790.29 1525.415,790.29 1526.415,789.957 1528.082,789.79 1528.083,790.622 1528.864,791.417 
		1529.75,792.875 1528.813,793.233 1527.293,793.708 1524.566,794.275 1524.084,794.691 1524.188,795.233 1524.566,795.566 
		1524.313,795.9 1523.563,795.837 1522.354,797.691 1521.959,798.188 1521.626,798.188 1521.354,797.754 1520.688,797.754 
		1520.334,798.066 1519.126,797.754 1518.391,798.004 	"/>
	<polygon fill="#F9B120" stroke="#000000" stroke-width="0.2" stroke-miterlimit="10" points="1522.201,797.885 1521.959,798.188 
		1521.626,798.188 1521.354,797.754 1520.688,797.754 1520.334,798.066 1519.126,797.754 1517.813,798.188 1518.094,798.699 
		1519.344,799.063 1519.5,799.469 1519.156,799.625 1519.188,800.063 1519.5,800.219 1519.5,800.656 1519.156,801.031 
		1519.156,801.281 1519.5,801.5 1519.5,801.875 1518.938,801.938 1518.969,803.135 1517.594,804.844 1516.938,805.063 
		1516.938,805.563 1517.469,805.75 1517.469,806.153 1517.188,806.281 1517.156,806.625 1516.719,806.757 1516.25,806.594 
		1516.25,806.281 1515.875,806.313 1514.844,807.719 1514.722,808.297 1515.25,808.344 1516.5,809.469 1517.125,809.531 
		1517.406,808.969 1518.094,809.031 1518.082,809.531 1518.781,809.313 1520.156,809.281 1521.188,807.813 1522.469,807.781 
		1522.859,808.5 1523.188,808.438 1523.188,807.594 1523.469,807.375 1523.625,806.969 1523.781,806.969 1524.094,807.219 
		1524.566,807.125 1524.566,806.563 1525.156,806.469 1525.156,806.153 1525.625,806.153 1525.625,804.688 1526.031,803.969 
		1526.969,803.875 1526.969,802.938 1525.873,802.875 1525.656,803.344 1524.938,803.375 1524.566,802.844 1524.566,802.156 
		1523.969,800.844 1523.781,799.844 1523.313,799.75 1522.859,798.75 1522.859,798.188 	"/>
	<polygon fill="#F9B120" stroke="#000000" stroke-width="0.2" stroke-miterlimit="10" points="1523.188,808.438 1523.188,807.594 
		1523.469,807.375 1523.625,806.969 1523.781,806.969 1524.094,807.219 1524.566,807.125 1524.566,806.563 1525.156,806.469 
		1525.156,806.153 1525.625,806.153 1525.625,804.688 1526.031,803.969 1526.969,803.875 1526.969,802.938 1528.125,801.875 
		1528.813,801.875 1529.5,800.063 1531.271,798.691 1532.063,798.691 1532.125,797.754 1532.979,797.754 1533.125,797.339 
		1533.521,797.089 1533.667,798.36 1534.292,798.839 1534.083,799.943 1533.417,801.276 1533.438,801.985 1533.938,803.151 
		1534.729,803.643 1534.896,804.506 1536.813,806.36 1536.813,806.943 1536.542,807.089 1536.625,807.589 1537.313,807.964 
		1537.417,808.943 1537.125,809.172 1537.417,809.631 1537.417,810.068 1536.5,810.422 1535.917,810.422 1535.729,810.693 
		1535.292,810.693 1535.104,810.318 1534.625,810.36 1534.458,810.693 1533.021,810.568 1532.313,810.922 1531.708,811.297 
		1531.188,811.61 1530.813,811.985 1529.583,811.985 1529.521,811.485 1529.979,811.276 1530.792,811.214 1531.333,810.631 
		1532,810.235 1532.396,809.922 1532.438,809.422 1531.146,809.531 1530.302,809.047 1529.417,808.985 1528.646,808.422 
		1527.188,808.297 1526.969,807.693 1526.313,807.693 1526.146,808.297 1525.479,808.172 1525.354,807.818 1524.583,807.901 
		1524.438,808.297 1523.896,808.526 	"/>
	<polygon fill="#F9B120" stroke="#000000" stroke-width="0.2" stroke-miterlimit="10" points="1518.082,809.531 1518.063,810.375 
		1517.531,810.813 1517.5,811.375 1517.875,811.531 1517.875,812.094 1517.531,812.313 1517.594,813.25 1517.969,813.844 
		1518.219,815.219 1518.75,815.219 1518.958,815.708 1518.438,816.604 1518.521,817.313 1519.729,818.333 1520.406,818.219 
		1520.719,818.781 1521.792,818.75 1522.125,818.208 1523.333,817.542 1524.229,816.313 1525.063,816.313 1525.594,816.781 
		1526.266,816.656 1526.828,815.766 1528.031,815.688 1527.969,816.563 1527,817.5 1527.063,818.172 1527.703,818.188 
		1527.703,817.813 1528.484,817.75 1528.688,818.391 1529.078,819.234 1529.797,819.281 1529.828,819.031 1530.599,818.938 
		1530.688,819.281 1531.422,819.25 1531.719,818.719 1533.094,818.453 1535.766,816.563 1536.828,816.563 1537.156,817.422 
		1538.516,817.234 1538.516,816.237 1538.781,815 1536.719,812.563 1536.594,811.844 1537.219,811.781 1537.125,810.844 
		1536.5,810.422 1535.917,810.422 1535.729,810.693 1535.292,810.693 1535.104,810.318 1534.625,810.36 1534.458,810.693 
		1533.021,810.568 1531.188,811.61 1530.813,811.985 1529.583,811.985 1529.521,811.485 1529.979,811.276 1530.792,811.214 
		1531.333,810.631 1532.396,809.922 1532.438,809.422 1531.146,809.531 1530.302,809.047 1529.417,808.985 1528.646,808.422 
		1527.188,808.297 1526.969,807.693 1526.313,807.693 1526.146,808.297 1525.479,808.172 1525.354,807.818 1524.583,807.901 
		1524.438,808.297 1523.896,808.526 1523.188,808.438 1522.859,808.5 1522.469,807.781 1521.188,807.813 1520.156,809.281 
		1518.781,809.313 	"/>
	<polygon fill="#F9B120" stroke="#000000" stroke-width="0.2" stroke-miterlimit="10" points="1533.208,792.75 1532.125,792.75 
		1532,793.708 1530.958,793.481 1529.75,792.875 1527.293,793.708 1524.566,794.275 1524.084,794.691 1524.188,795.233 
		1524.566,795.566 1524.313,795.9 1523.563,795.837 1522.201,797.885 1522.859,798.188 1522.859,798.75 1523.313,799.75 
		1523.781,799.844 1523.969,800.844 1524.566,802.156 1524.566,802.844 1524.938,803.375 1525.656,803.344 1525.873,802.875 
		1526.969,802.938 1528.125,801.875 1528.813,801.875 1529.5,800.063 1531.271,798.691 1532.063,798.691 1532.125,797.754 
		1532.979,797.754 1533.125,797.339 1533.521,797.089 1534.406,797.089 1534.75,796.594 1536.156,796.469 1536.333,795.938 
		1536.042,795.333 1534.917,795.063 1534.833,793.875 	"/>
	<polygon fill="#F9B120" stroke="#000000" stroke-width="0.2" stroke-miterlimit="10" points="1533.208,792.75 1534.833,793.875 
		1534.917,795.063 1536.042,795.333 1536.333,795.938 1536.917,795.938 1537.417,796.594 1538.344,796.594 1538.938,795.625 
		1539.563,795.656 1539.719,796.387 1540.563,796.387 1542.875,798.188 1545.125,798.344 1545.938,797.754 1545.75,796.387 
		1546.156,795.281 1546.156,794.094 1546.781,794.125 1546.969,794.531 1547.563,794.469 1547.563,793.125 1547.25,793.031 
		1547.219,792.281 1548.531,791.406 1548.531,790.5 1548.313,790.29 1548.313,789.688 1548.531,789.531 1548.531,788.844 
		1548.219,788.688 1548.281,788.313 1547.833,788.095 1547.542,788.497 1546.833,788.497 1545.667,787.792 1545.625,787.167 
		1545.958,786.797 1545.75,786.458 1542.875,786.25 1542.375,786.797 1542.083,787.583 1540.417,787.708 1540.333,787.167 
		1540.667,786.5 1540.042,786.583 1539.667,787.375 1539,787.5 1538.917,788 1536.917,789.513 1536.917,790.622 1536.292,790.622 
		1536.167,789.958 1535.708,790 1535.792,790.622 1534.542,791.458 1533.75,791.703 	"/>
	<polygon fill="#F9B120" stroke="#000000" stroke-width="0.2" stroke-miterlimit="10" points="1537.417,808.943 1537.125,809.172 
		1537.417,809.631 1537.417,810.068 1536.5,810.422 1537.125,810.844 1537.219,811.781 1536.594,811.844 1536.719,812.563 
		1538.781,815 1538.516,816.237 1538.516,817.234 1539.094,817.953 1540,817.953 1540.563,818.438 1541.125,818.438 
		1542.844,818.438 1543.375,819.281 1544.25,819.281 1544.25,819.563 1545.094,819.563 1545.094,819.281 1546.625,819.281 
		1546.844,818.359 1547.281,818.359 1547.531,819.031 1547.844,818.656 1548.531,818.75 1548.875,819.063 1549.469,818.938 
		1549.833,818.359 1550.656,818.359 1551.406,817.542 1552.167,817.531 1552.167,816.427 1551.813,816.281 1551.813,815.813 
		1552.167,815.813 1552.938,814.969 1552.875,814.375 1553.563,814.375 1553.688,814.563 1554.156,814.563 1554.313,813.188 
		1554.875,812.906 1554.875,811.625 1555.375,811.094 1555.219,810.563 1554.438,810.625 1554.281,810.875 1552.875,810.875 
		1552.875,810.281 1552.594,810 1552.219,810 1552.188,809.281 1552.5,809.094 1552.5,808.531 1551.031,808.531 1549.031,806.153 
		1548.25,805.75 1548.125,805.094 1547.813,804.063 1546.5,804.063 1546.094,803.375 1545.625,803.375 1544.656,804.188 
		1544.156,804.313 1543.844,804.125 1543.625,804.313 1543.594,804.938 1542.875,805.031 1542.656,804.813 1542.406,804.813 
		1542.281,805.969 1541.656,805.938 1541.313,805.688 1540.625,805.656 1539.781,806.781 1539.906,807.313 1540.125,807.693 
		1540.094,808.297 1539.688,808.625 1539.063,809.125 1538.531,809.125 1538.375,808.844 1538,808.844 1537.906,809.094 	"/>
	<polygon fill="#F9B120" stroke="#000000" stroke-width="0.2" stroke-miterlimit="10" points="1549.031,806.153 1548.25,805.75 
		1548.125,805.094 1547.813,804.063 1546.5,804.063 1546.094,803.375 1545.625,803.375 1544.656,804.188 1544.156,804.313 
		1543.844,804.125 1543.625,804.313 1543.594,804.938 1542.875,805.031 1542.656,804.813 1542.406,804.813 1542.281,805.969 
		1541.656,805.938 1541.313,805.688 1540.625,805.656 1539.781,806.781 1539.906,807.313 1540.125,807.693 1540.094,808.297 
		1539.063,809.125 1538.531,809.125 1538.375,808.844 1538,808.844 1537.906,809.094 1537.417,808.943 1537.313,807.964 
		1536.625,807.589 1536.542,807.089 1536.813,806.943 1536.813,806.36 1534.896,804.506 1534.729,803.643 1533.938,803.151 
		1533.438,801.985 1533.417,801.276 1534.083,799.943 1534.292,798.839 1533.667,798.36 1533.521,797.089 1534.406,797.089 
		1534.75,796.594 1536.156,796.469 1536.333,795.938 1536.917,795.938 1537.417,796.594 1538.344,796.594 1538.938,795.625 
		1539.563,795.656 1539.719,796.387 1540.563,796.387 1542.875,798.188 1545.125,798.344 1545.938,797.754 1547,797.754 
		1547.313,797.438 1547.875,797.531 1548.156,798.063 1550.781,799.594 1550.781,800.219 1550.375,800.5 1550.344,801 
		1551.469,801.344 1551.469,801.719 1551.188,802.188 1551.156,802.938 1551.469,804.063 1550.219,804.313 1549.833,804.25 
		1549.688,804.537 1550.125,804.75 1550.188,805.25 1549.469,805.406 	"/>
	<polygon fill="#F9B120" stroke="#000000" stroke-width="0.2" stroke-miterlimit="10" points="1558.438,811.688 1559.156,811.844 
		1560.438,813.313 1561.813,813.375 1561.813,813.719 1562.344,813.625 1562.604,812.719 1563.469,812.719 1563.875,813.375 
		1564.531,813.406 1566.167,811.469 1566.167,810.46 1567.417,809.531 1568.208,808.297 1569.083,807.693 1569.333,806.543 
		1569.75,805.793 1570.5,805.335 1570.5,804.252 1570.25,803.643 1569.167,803.643 1568.292,803.375 1568.125,802.71 
		1568.708,802.543 1568.5,802.002 1567.625,802.002 1567.417,801.793 1567,801.793 1566.75,802.342 1566.292,802.342 
		1566.042,801.793 1565.625,801.793 1565.417,802.127 1564.958,802.168 1564.917,801.793 1564.083,801.793 1563.458,802.627 
		1562.417,802.71 1562.333,803.375 1562.75,803.643 1563.25,803.643 1563.375,804.537 1563.542,805.21 1563.125,805.335 
		1563.125,805.877 1563.583,806.153 1563.583,806.627 1562.542,807.693 1561,807.693 1560.708,808.297 1560.75,808.752 
		1560.333,809.752 1558.719,810.875 1558.167,811.127 	"/>
	<polygon fill="#F9B120" stroke="#000000" stroke-width="0.2" stroke-miterlimit="10" points="1550.781,799.594 1550.781,800.219 
		1550.375,800.5 1550.344,801 1551.469,801.344 1551.469,801.719 1551.188,802.188 1551.156,802.938 1551.469,804.063 
		1550.219,804.313 1549.833,804.25 1549.688,804.537 1550.125,804.75 1550.188,805.25 1549.469,805.406 1549.031,806.153 
		1551.031,808.531 1552.5,808.531 1552.5,809.094 1552.188,809.281 1552.219,810 1552.594,810 1552.875,810.281 1552.875,810.875 
		1554.281,810.875 1554.438,810.625 1555.219,810.563 1555.375,811.094 1556.453,810.875 1557.219,811.156 1557.281,812.188 
		1558.219,812.313 1558.438,811.688 1558.167,811.127 1560.333,809.752 1560.75,808.752 1560.708,808.297 1561,807.693 
		1562.542,807.693 1563.583,806.627 1563.583,806.153 1563.125,805.877 1563.125,805.335 1563.542,805.21 1563.25,803.643 
		1562.75,803.643 1562.333,803.375 1562.417,802.71 1563.458,802.627 1564.083,801.793 1564.917,801.793 1564.958,802.168 
		1565.417,802.127 1565.625,801.793 1566.042,801.793 1566.292,802.342 1566.75,802.342 1567,801.793 1567.417,801.793 
		1568.083,801.25 1568.333,799.833 1568.333,798.667 1567.833,798.063 1566.833,798.063 1565.875,798.063 1565.125,797.089 
		1563.125,796.125 1562.208,796.125 1561.375,795 1560.5,795 1559.5,795.917 1559.958,796.583 1559.708,797.089 1559.417,797.754 
		1558.719,797.754 1557.042,797.583 1556,797.375 1555.042,797.375 1553.958,798.063 1552.917,798.344 1552.417,798.542 
		1551.813,799.458 	"/>
	<polygon fill="#F9B120" stroke="#000000" stroke-width="0.2" stroke-miterlimit="10" points="1578.208,791.792 1576.625,791.792 
		1575.667,792.75 1575.25,792.297 1574.833,792.297 1574.583,793.5 1573.854,794.333 1573,794.292 1572,794.792 1570.917,795 
		1570.5,794.667 1569.146,795.269 1568.667,794.104 1568.667,792.667 1569.146,791.813 1568.438,791.313 1568.333,790.354 
		1570.5,788.497 1570.208,787.458 1571.021,786.875 1571.313,786.188 1571.5,785.083 1572.083,784.354 1572.083,783.604 
		1571.75,783.354 1572.083,782.271 1571.625,782.167 1571.5,781.521 1572.333,781.333 1572.333,780.729 1571.333,779.792 
		1571.25,778.878 1570.708,778.75 1570.792,777.917 1571.083,777.417 1572.333,777.417 1573.271,777.917 1575.083,778.167 
		1575.583,778.625 1575.906,779.688 1576.313,780.729 1576.969,781.313 1577.969,780.969 1578.406,781.313 1579.563,781.125 
		1580.688,780.729 1580.688,781.531 1581.375,782.125 1581.719,782.719 1580.906,783.063 1580.5,783.375 1580.469,784.613 
		1580.563,785.5 1580.094,786.063 1580.031,786.938 1579.625,787.563 1579.813,788.906 1578.875,789.236 1578.531,790.469 	"/>
	<polygon fill="#F9B120" stroke="#000000" stroke-width="0.2" stroke-miterlimit="10" points="1578.792,820.563 1578,820.375 
		1577.021,820.938 1576.292,821.583 1576.292,822.25 1575.375,822.458 1575.375,823.75 1576.688,823.75 1577.083,824.167 
		1577.438,824.167 1577.708,823.667 1577.875,823.208 1578.792,822.708 1579.167,822.271 1579.167,821.146 	"/>
	<polygon fill="#F9B120" stroke="#000000" stroke-width="0.2" stroke-miterlimit="10" points="1586.021,814.333 1585.833,815.792 
		1585.125,816.125 1584.938,817.146 1586.333,817.146 1588,817.146 1588.271,816.458 1588.75,816.354 1590.042,818.063 
		1591.104,819.083 1592.896,819.25 1593.208,818.625 1593.208,817.813 1593.875,817.458 1594.042,816.479 1595.958,815.958 
		1596.146,814.833 1596.146,813.156 1595.531,812.938 1594.563,812.938 1594.094,812.125 1593.313,811.938 1593.125,811.063 
		1592.281,810.875 1590.406,810.875 1589.75,811.906 1588.25,811.938 1587.844,812.844 1587.875,813.719 1586.969,813.906 	"/>
	<polygon fill="#F9B120" stroke="#000000" stroke-width="0.2" stroke-miterlimit="10" points="1441.938,934.063 1438.188,934.063 
		1437.563,935.938 1438.875,936.5 1441.938,935.938 1442.375,934.75 	"/>
	<polygon fill="#F9B120" stroke="#000000" stroke-width="0.2" stroke-miterlimit="10" points="1439.063,938 1437,938 
		1435.125,940.063 1434.063,942.688 1433.5,943.875 1431.875,943.875 1431.25,945.063 1435.938,945.063 1437.563,943.938 
		1438.438,942.063 1439.063,939.938 	"/>
	<polygon fill="#F9B120" stroke="#000000" stroke-width="0.2" stroke-miterlimit="10" points="1423.188,944.25 1421.063,943.875 
		1419.938,945.063 1419.938,948.688 1421.563,949.563 1423.5,949 1425.313,947.875 1425.313,945.813 1424.563,945.688 	"/>
	<polygon fill="#F9B120" stroke="#000000" stroke-width="0.2" stroke-miterlimit="10" points="1417.438,940.5 1416.188,943.063 
		1414.688,944.375 1413.25,946.125 1411.063,946.125 1410,944.313 1410,941.813 1411.125,940.5 1413.719,940.813 1414.438,939.688 
		1415.313,938.5 1416.5,939.438 	"/>
	<polygon fill="#F9B120" stroke="#000000" stroke-width="0.2" stroke-miterlimit="10" points="1407.25,943.125 1407.25,945.063 
		1404.875,945.063 1404.875,943.875 1406.563,942.813 	"/>
	<polygon fill="#F9B120" stroke="#000000" stroke-width="0.2" stroke-miterlimit="10" points="1402.188,937.25 1402.188,939.313 
		1400.813,940.125 1399.625,939.688 1399.625,939.063 1398.563,938.688 1398.875,936.813 1402.188,936.5 	"/>
	<polygon fill="#F9B120" stroke="#000000" stroke-width="0.2" stroke-miterlimit="10" points="1401.188,947 1401.188,949 
		1400.375,950 1398.563,950.438 1398.125,949.188 1397.625,947.75 1398.813,947 1400.125,946.719 	"/>
	<polygon fill="#F9B120" stroke="#000000" stroke-width="0.2" stroke-miterlimit="10" points="1504.969,776.188 1504.969,776.594 
		1504.406,777.844 1503.625,778.313 1502.906,778.313 1502.656,780.219 1503.063,781.875 1502.688,782.813 1503.984,783.031 
		1505.188,783.75 1505.188,785.219 1506.516,785.219 1506.703,785.531 1507,785.531 1507.188,785.297 1507.516,785.219 
		1507.641,785.484 1508.961,785.604 1510.203,785.766 1512.344,786.359 1515.969,786.797 1516.844,786.469 1517.594,785.219 
		1518.391,784.875 1518.969,784.625 1519.594,784.625 1520.156,784.625 1520.75,783.531 1520.688,776.281 1521.198,774.992 
		1519.729,774.383 1519,774.992 1518.391,776.063 1516.313,776.292 1515.969,775.375 1514.722,775.563 1514.722,776.292 
		1513.5,776.292 1512.5,775.375 1511.188,775.313 1510.188,775.5 1509.156,774.992 1508.318,776.168 1507.042,776.594 
		1505.938,776.594 	"/>
	<polygon fill="#F9B120" stroke="#000000" stroke-width="0.2" stroke-miterlimit="10" points="1490.344,780.813 1490.031,781.656 
		1490.313,782.469 1490.219,783.009 1490.031,783.156 1490.031,784.125 1490.406,784.75 1490.281,785.781 1490.5,786.406 
		1490.141,786.862 1490.234,787.388 1490.859,787.591 1491.016,788.028 1490.219,788.481 1489.844,789.044 1489.828,789.638 
		1490.047,789.966 1490.281,789.966 1490.469,790.31 1490.688,790.325 1490.781,790.622 1491.219,790.622 1491.516,790.294 
		1492,790.091 1492.625,789.966 1492.703,789.685 1493.063,789.513 1493.174,789.966 1493.203,790.31 1493.844,790.122 
		1494.391,790.06 1495.109,789.966 1495.734,789.638 1496.008,789.856 1496.25,790.481 1496.578,790.622 1496.844,790.528 
		1496.969,789.856 1497.266,789.75 1497.797,790.263 1498.172,790.263 1498.5,790.044 1499.266,790.106 1499.479,789.966 
		1499.781,789.966 1500.156,789.591 1500.203,788.981 1500.359,788.622 1500.85,788.497 1501.234,788.81 1501.844,788.825 
		1502.406,788.716 1502.841,788.888 1503.375,788.825 1503.688,788.497 1504.125,788.497 1504.188,788.016 1503.984,787.234 
		1503.984,786.547 1504.25,786.016 1505.094,786.031 1505.188,785.219 1505.188,783.75 1503.984,783.031 1502.688,782.813 
		1501.781,783.688 1501.063,783.719 1500.438,783.281 1499,783.375 1498.344,784.016 1497.813,783.875 1496.844,782.5 
		1496.008,782.5 1495.156,781.5 1494.375,780.969 1493,780.813 	"/>
	<polygon fill="#F9B120" stroke="#000000" stroke-width="0.2" stroke-miterlimit="10" points="1505.406,766.656 1502.75,768.938 
		1502.094,769.281 1502,770.031 1502.656,770.313 1502.969,771.063 1502.688,771.844 1503.25,772.906 1503.984,773.75 
		1504.75,773.75 1505.188,773.5 1505.406,773.75 1505.406,774.375 1504.531,774.375 1503.984,774.813 1503.984,775.625 
		1504.969,776.188 1505.938,776.594 1507.042,776.594 1508.318,776.168 1509.156,774.992 1510.188,775.5 1511.188,775.313 
		1512.5,775.375 1513.5,776.292 1514.722,776.292 1514.722,775.563 1515.969,775.375 1516.313,776.292 1518.391,776.063 
		1519,774.992 1519.729,774.383 1521.198,774.992 1521.938,773.125 1520.813,771.396 1522.156,769.688 1523.125,769.531 
		1523.781,767.938 1519.469,766.833 1518.813,767.156 1516.906,766.063 1516.719,765.438 1516.156,765.844 1514.656,763.844 
		1514.156,763.656 1513.469,764.156 1511.188,764.344 1509.75,765.656 1506.188,765.938 	"/>
	<polygon fill="#F9B120" stroke="#000000" stroke-width="0.2" stroke-miterlimit="10" points="1505.188,785.219 1505.094,786.031 
		1504.25,786.016 1503.984,786.547 1503.984,787.234 1504.188,788.016 1504.125,788.497 1504.25,788.778 1504.922,788.903 
		1505.547,788.856 1505.906,788.638 1506.234,788.716 1506.156,789.247 1506.266,789.606 1506.531,789.685 1506.563,790.106 
		1506.328,790.544 1506.281,791.075 1506.172,791.497 1506.234,792.122 1506.891,792.185 1507.281,791.903 1508.172,791.794 
		1508.594,792.325 1508.922,792.466 1509.156,793.044 1509.156,793.872 1508.875,794.513 1508.375,794.888 1508.309,795.263 
		1507.766,795.544 1506.922,796.387 1507.563,796.844 1508.705,796.844 1510,796.531 1510.719,797.122 1512.344,797.341 
		1512.5,797.844 1513.25,798 1513.625,797.531 1513.594,797.122 1515.719,797.122 1517.813,798.188 1517.891,797.438 
		1518.109,796.685 1518.109,795.766 1517.813,795.391 1517.781,795.031 1518.016,794.906 1518.109,794.328 1518.391,793.922 
		1518.391,793.25 1518.047,793 1517.984,792.438 1517.797,792.156 1517.781,791.203 1518.391,790.813 1518.391,790.016 
		1518.141,789.922 1518.078,789.359 1518.313,789.156 1518.219,788.497 1517.984,787.906 1517.75,787.484 1517.469,787.484 
		1517.281,787.75 1516.969,787.766 1516.625,787.484 1515.969,786.797 1512.344,786.359 1510.203,785.766 1507.641,785.484 
		1507.516,785.219 1507.188,785.297 1507,785.531 1506.703,785.531 1506.516,785.219 	"/>
	<polygon fill="#F9B120" stroke="#000000" stroke-width="0.2" stroke-miterlimit="10" points="1556.792,778.878 1555.917,779.875 
		1554.083,780.458 1553.625,781.125 1553.917,781.875 1553,782.292 1552.792,783.292 1553.417,783.708 1553.333,784.625 
		1552.708,785.042 1552.792,786.25 1553.25,786.797 1552.833,787.458 1552.917,787.958 1552.667,788.497 1551,788.497 
		1549.833,787.75 1548.292,787.458 1547.792,786.797 1548.292,786.083 1549.833,786.083 1549.833,785.219 1548.125,784.375 
		1546.792,783.208 1545.167,782.641 1543.083,782.292 1541.146,782.021 1540.729,780.896 1540.87,779.875 1541.594,778.878 
		1542.25,777.656 1541.5,776.844 1542.25,776.031 1543.688,776.063 1543.844,775.322 1545.125,774.688 1545.75,773.969 
		1545.75,773.094 1546.531,772.417 1546.688,771.656 1547.344,771.188 1547.344,770.188 1548.125,770.219 1548.761,771.688 
		1550.125,772.417 1551.125,772.417 1551.844,773.188 1551.969,774.651 1552.656,774.651 1553.188,775.25 1554.75,775.313 
		1556.094,776.219 1557.094,776.5 1557.094,777.969 	"/>
	<polygon fill="#F9B120" stroke="#000000" stroke-width="0.2" stroke-miterlimit="10" points="1544.375,833.667 1543.417,833.667 
		1542.667,832.708 1543.094,832.094 1543.375,831.188 1543.719,830.813 1543.719,830.313 1543.219,830.125 1543.031,829.375 
		1542.313,828.938 1542.219,828.063 1541.75,827.906 1541.469,828.188 1541,828.219 1540.844,827.906 1540.063,827.906 
		1540.563,827.156 1541.297,826.766 1541.656,826.219 1541.656,825.406 1541.141,824.672 1540.313,824.594 1540.25,823.828 
		1539.656,823.656 1539.422,823.313 1539.375,822.75 1539.797,822.359 1539.688,820.453 1540.484,819.391 1540.563,818.438 
		1542.844,818.438 1543.375,819.281 1544.25,819.281 1544.25,819.563 1545.094,819.563 1545.094,819.281 1546.625,819.281 
		1546.844,818.359 1547.281,818.359 1547.531,819.031 1547.844,818.656 1548.531,818.75 1548.875,819.063 1549.469,818.938 
		1549.833,818.359 1550.656,818.359 1551.406,817.542 1552.167,817.531 1554.813,818.719 1555.531,818.719 1555.219,819.438 
		1555.188,820.719 1554.813,821.031 1554.813,821.969 1555.781,822.906 1556.453,823.031 1556.453,822.719 1557.063,822.594 
		1557.75,823.156 1557.938,825.344 1557.75,826.156 1556.906,826.752 1556,826.083 1555.75,825.375 1555.042,825.599 
		1554.542,826.083 1554.542,826.552 1553.75,826.042 1553.208,826.208 1552.667,826.75 1552.958,827.375 1553.125,828.583 
		1552.625,829.352 1551.813,828.875 1551.813,827.906 1550.688,828.5 1549.031,829.896 1547.875,830.188 1548.531,830.966 
		1547.188,831.438 1545.938,832.125 1545.333,833.208 	"/>
	<polygon fill="#F9B120" stroke="#000000" stroke-width="0.2" stroke-miterlimit="10" points="1551.406,841.094 1550.313,839.875 
		1548.844,839.469 1547.438,837.969 1547.438,836.031 1547.844,835.875 1547.656,835.438 1545.333,834.958 1544.375,833.667 
		1545.333,833.208 1545.938,832.125 1547.188,831.438 1548.531,830.966 1547.875,830.188 1549.031,829.896 1550.688,828.5 
		1551.813,827.906 1551.813,828.875 1552.625,829.352 1553.125,828.583 1552.958,827.375 1552.667,826.75 1553.208,826.208 
		1553.75,826.042 1554.542,826.552 1554.542,826.083 1555.042,825.599 1555.75,825.375 1556,826.083 1556.906,826.752 1557,827.328 
		1557.266,827.547 1557.297,827.875 1556.938,828.047 1556.984,828.969 1556.453,829.219 1556.609,830 1557.531,830.25 
		1557.563,831.734 1556.984,832.078 1557.094,833.125 1558.094,833.75 1558.172,834.547 1558.609,835.156 1559.422,835.391 
		1559.422,836.042 1558.719,836.292 1558.719,836.75 1559.708,837.292 1560.292,837.208 1559.917,838.208 1559.208,838.958 
		1558.167,839.083 1556.453,839 1555.125,838.833 1553.292,839.083 1552.542,839.583 1551.813,840.458 1551.813,841.094 	"/>
	<polygon fill="#F9B120" stroke="#000000" stroke-width="0.2" stroke-miterlimit="10" points="1485.017,778.916 1486.188,777.875 
		1487.516,777.25 1490.125,777.281 1490.625,776.594 1493.063,776.594 1493.875,777.094 1495.125,778.313 1495.125,779.438 
		1494.5,779.969 1494.375,780.969 1493,780.813 1491.813,780.813 1490.344,780.813 1490.031,781.656 1490.313,782.469 
		1490.219,783.009 1490.031,783.156 1490.031,784.125 1490.406,784.75 1490.281,785.781 1490.5,786.406 1490.141,786.862 
		1489.844,787.263 1489.672,787.56 1489.438,787.481 1489.172,787.622 1487.625,787.731 1487.297,788.075 1486.5,788.075 
		1485.922,788.669 1485.359,788.747 1484.516,789.716 1484.016,789.513 1483.875,789 1483.141,785.078 1483.641,784.688 
		1483.703,784.25 1483.891,783.672 1484.297,783.234 1485.031,783.078 1485.469,782.719 1485.484,782.016 1485.031,781.766 
		1484.359,782.156 1484.016,782.594 1483.719,783.031 1483.25,783.155 1483,782.938 1483,782.438 1483.125,782.031 
		1483.594,781.875 1484.172,781.578 1484.906,781.375 1485.203,780.799 1484.859,780.59 1484.344,780.59 1483.938,781 
		1483.422,781.359 1483,781.375 1482.297,780.799 1482.203,780.094 1483.109,780.156 1483.484,780.438 1483.938,780.172 
		1484.625,779.953 	"/>
	<polygon fill="#F9B120" stroke="#000000" stroke-width="0.2" stroke-miterlimit="10" points="1510.063,806.235 1509.438,806.153 
		1507.781,807.219 1506.75,808.075 1504.25,808.075 1503.875,807.763 1503.516,807.966 1502.984,807.935 1502.841,808.294 
		1502.063,808.747 1501.953,809.481 1502.203,810.013 1502.672,810.388 1503.172,810.997 1502.938,812.403 1502.672,813.169 
		1502.203,813.466 1502.219,814.185 1501.766,815.185 1499.531,815.153 1499.391,815.341 1497.078,815.278 1496.729,815.466 
		1496.854,815.862 1497.271,816.067 1497.5,816.499 1497.813,816.499 1497.925,816.778 1498.688,816.862 1499.083,817.257 
		1499.083,819.007 1499.669,819.222 1499.708,819.675 1500.292,819.792 1500.813,818.292 1501.188,818.333 1501.396,818.833 
		1501.833,819.104 1502.083,818.833 1502.292,818.271 1502.667,818.161 1503.083,818.521 1503.75,818.688 1504.521,819.167 
		1504.604,819.675 1504.146,820.021 1504.188,820.438 1504.417,820.833 1505.063,820.833 1505.521,821.146 1507.083,821.146 
		1507.417,821.542 1508.521,821.833 1509.333,822.229 1509.667,822.813 1510.167,822.958 1510.5,822.57 1510.958,822.167 
		1511.167,821.833 1511.771,821.875 1511.938,822.25 1512.75,822.333 1513.146,822 1513.479,821.771 1514.021,822.063 
		1514.479,822.57 1515.021,822.57 1515.563,822.396 1515.563,821.979 1515.333,821.667 1515.313,821.333 1515.708,820.896 
		1516.104,820.958 1516.646,821.354 1516.707,821.567 1516.896,821.667 1517.542,821.542 1517.542,820.813 1517.646,820.185 
		1517.896,819.792 1518.625,819.675 1519.104,820.021 1519.729,819.292 1519.729,818.333 1518.521,817.313 1518.438,816.604 
		1518.958,815.708 1518.75,815.219 1518.219,815.219 1517.969,813.844 1517.594,813.25 1517.531,812.313 1517.875,812.094 
		1517.875,811.531 1517.5,811.375 1517.531,810.813 1518.063,810.375 1518.082,809.531 1518.094,809.031 1517.406,808.969 
		1517.125,809.531 1516.5,809.469 1515.25,808.344 1514.722,808.297 1514.188,808.25 1514.063,807.531 1513.719,807.531 
		1513.125,808.075 1511.969,808.075 1510.656,806.313 	"/>
	<polygon fill="#F9B120" stroke="#000000" stroke-width="0.2" stroke-miterlimit="10" points="1509.083,835.518 1508.375,835.479 
		1507.733,835.086 1507.229,834.771 1505.667,834.771 1505.313,834.333 1503.5,834.146 1503.313,833.042 1502.781,832.778 
		1502.938,831.737 1502.688,831.737 1502.438,832.278 1501.5,832.778 1500.875,832.278 1500.281,831.403 1500.396,831.132 
		1500.292,830.487 1499.917,829.737 1499.583,829.507 1499.438,828.278 1499.833,827.82 1500.021,826.612 1500.583,826.112 
		1500.708,825.674 1501.271,825.341 1501.271,824.903 1501.792,824.445 1501.875,823.257 1502.417,822.757 1502.417,821.966 
		1502.313,821.695 1500.958,821.653 1500.771,821.57 1500.5,820.799 1499.958,820.424 1499.708,820.299 1499.708,819.675 
		1500.292,819.792 1500.813,818.292 1501.188,818.333 1501.396,818.833 1501.833,819.104 1502.083,818.833 1502.292,818.271 
		1502.667,818.161 1503.083,818.521 1503.75,818.688 1504.521,819.167 1504.604,819.675 1504.146,820.021 1504.188,820.438 
		1504.417,820.833 1505.063,820.833 1505.521,821.146 1507.083,821.146 1507.417,821.542 1508.521,821.833 1509.333,822.229 
		1509.667,822.813 1510.167,822.958 1510.5,822.57 1510.958,822.167 1511.167,821.833 1511.771,821.875 1511.938,822.25 
		1512.75,822.333 1513.479,821.771 1514.021,822.063 1514.479,822.57 1515.021,822.57 1515.563,822.396 1515.563,821.979 
		1515.333,821.667 1515.313,821.333 1515.708,820.896 1516.104,820.958 1516.646,821.354 1516.707,821.567 1516.896,821.667 
		1517.542,821.542 1517.542,820.813 1517.646,820.185 1517.896,819.792 1518.625,819.675 1519.104,820.021 1519.729,819.292 
		1519.729,818.333 1520.406,818.219 1520.719,818.781 1521.792,818.75 1522.125,818.208 1523.333,817.542 1522.672,819.922 
		1522.328,820.141 1522.422,821.234 1522.672,821.219 1522.672,821.828 1521.641,821.984 1521.266,822.391 1521.563,822.958 
		1521.391,823.375 1520.359,823.422 1520.453,824.094 1521.438,824.922 1521.563,825.453 1520.609,825.594 1519.542,826.938 
		1518.563,827.021 1518.354,827.729 1517.771,828.646 1516.938,828.604 1516.792,829.479 1515.125,830.646 1515.188,831.083 
		1515.417,831.292 1515.479,832.208 1515.771,832.479 1515.771,833.208 1515.313,833.396 1514.583,834.292 1514.125,834.396 
		1514.125,833.208 1512.667,833.396 1511.583,834.729 1511.375,835.396 1510.854,835.563 1510.583,835.083 1510.188,835.125 
		1509.917,835.563 	"/>
	<polygon fill="#F9B120" stroke="#000000" stroke-width="0.2" stroke-miterlimit="10" points="1504.416,834.241 1503.5,834.146 
		1503.313,833.042 1502.781,832.778 1502.469,833.247 1502.344,833.747 1500.938,833.903 1500.688,834.216 1499.906,834.31 
		1499.656,835.249 1499.031,836.966 1498.281,837.825 1497.938,838.544 1497.516,839.091 1497.375,839.669 1497.125,840.153 
		1497.406,840.997 1497.313,841.685 1497.594,842.028 1498.107,842.44 1498.232,843.585 1498.753,844.127 1498.42,844.69 
		1497.982,844.877 1498.649,845.127 1499.438,844.438 1499.566,844.023 1501.711,844.023 1502.107,843.606 1502.482,843.127 
		1502.938,842.903 1503.17,843.229 1502.938,843.669 1502.586,843.919 1502.628,844.315 1503.211,844.585 1503.941,845.315 
		1504.753,846.771 1505.125,847.5 1505.625,847.313 1505.625,846.375 1505.792,846.375 1506.167,845.653 1506.167,844 
		1505.625,843.75 1505.583,843.084 1506,842.903 1505.917,841.625 1506.167,841.375 1506.167,840.75 1505.875,840.542 
		1505.875,840.153 1506.167,840.153 1506.167,838.375 1505.917,837.667 1504.958,837.372 1504.542,837.084 1504.583,836.606 
		1505.208,836.167 1506.167,836.167 1506.333,835.563 1507.542,835.563 1507.733,835.086 1507.229,834.771 1505.667,834.771 
		1505.313,834.333 	"/>
	<polygon fill="#F9B120" stroke="#000000" stroke-width="0.2" stroke-miterlimit="10" points="1508.938,835.563 1508.375,835.479 
		1507.733,835.086 1507.542,835.563 1506.333,835.563 1506.167,836.167 1505.208,836.167 1504.583,836.606 1504.542,837.084 
		1504.958,837.372 1505.917,837.667 1506.167,838.375 1506.167,840.153 1505.875,840.153 1505.875,840.542 1506.167,840.75 
		1506.167,841.375 1505.917,841.625 1506,842.903 1505.583,843.084 1505.625,843.75 1506.167,844 1506.167,845.653 
		1507.104,845.417 1508.458,845.396 1509.042,846.375 1510.313,846.375 1511.172,845.375 1512.208,845.354 1512.417,844.979 
		1512.771,844.938 1513,845.354 1513.396,845.354 1513.563,845.854 1514.146,845.854 1514.229,845.542 1514.188,844.521 
		1514.708,844.5 1514.958,845.188 1515.583,845.125 1515.854,844.479 1516.333,844.438 1516.708,845.021 1517.313,845.083 
		1517.688,844.188 1518.604,843.854 1519.375,842.813 1521.458,842.313 1521.25,841.021 1519.594,840.153 1519.344,839.431 
		1518.594,839.431 1517.469,840.438 1516.688,840.438 1516.531,839.969 1516.781,839.431 1517.469,839.431 1518.031,838.813 
		1516.969,837.688 1516.688,836.406 1515.75,835.188 1515.75,834.156 1515.313,833.396 1514.583,834.292 1514.125,834.396 
		1514.125,833.208 1512.667,833.396 1511.583,834.729 1511.375,835.396 1510.854,835.563 1510.583,835.083 1510.188,835.125 
		1509.917,835.563 	"/>
	<polygon fill="#F9B120" stroke="#000000" stroke-width="0.2" stroke-miterlimit="10" points="1602.958,809.042 1599.458,809.042 
		1599,809.708 1599,810.875 1599.917,811.292 1600.125,811.875 1601.625,812.083 1602.042,812.958 1603.25,812.958 1603.75,812.083 
		1604.208,811 1603.958,809.958 	"/>
	<polygon fill="#F9B120" stroke="#000000" stroke-width="0.2" stroke-miterlimit="10" points="1556.667,797.508 1558.719,797.754 
		1559.417,797.754 1559.958,796.583 1559.5,795.917 1560.5,795 1561.375,795 1562.208,796.125 1563.125,796.125 1565.125,797.089 
		1565.875,798.063 1567.833,798.063 1567.583,797.394 1568.333,796.894 1569.146,795.269 1568.667,794.104 1567.396,794.021 
		1566.458,794.646 1565.854,794.417 1565.75,795 1565.354,795.125 1564.167,792.297 1563.542,791.875 1562.896,792.042 
		1559.646,788.271 1558.479,788.208 1557.521,787.625 1557.583,786.938 1558.229,786.563 1558.542,786.146 1558.333,785.583 
		1558.683,785.083 1558.683,784.104 1558.125,784.208 1557.479,784.613 1556.938,783.917 1557.438,782.729 1557.021,781.854 
		1556.792,780.5 1557.208,779.5 1556.792,778.878 1555.917,779.875 1554.083,780.458 1553.625,781.125 1553.917,781.875 
		1553,782.292 1552.792,783.292 1553.417,783.708 1553.333,784.625 1552.708,785.042 1552.792,786.25 1553.25,786.797 
		1552.833,787.458 1552.917,787.958 1552.667,788.497 1551,788.497 1549.833,787.75 1548.292,787.458 1547.833,788.095 
		1548.281,788.313 1548.219,788.688 1548.531,788.844 1548.531,789.531 1548.313,789.688 1548.313,790.29 1548.531,790.5 
		1548.531,791.406 1547.219,792.281 1547.25,793.031 1547.563,793.125 1547.563,794.469 1546.969,794.531 1546.781,794.125 
		1546.156,794.094 1546.156,795.281 1545.75,796.387 1545.938,797.754 1547,797.754 1547.313,797.438 1547.875,797.531 
		1548.156,798.063 1550.781,799.594 1551.813,799.458 1552.417,798.542 1553.958,798.063 1555.042,797.375 1556,797.375 	"/>
	<polygon fill="#F9B120" stroke="#000000" stroke-width="0.2" stroke-miterlimit="10" points="1579.226,793.155 1580.292,794.583 
		1580.292,795.625 1580.688,796 1584.042,796 1584.5,795 1585.917,794.292 1586.583,793.155 1587.917,793.458 1588.417,792.5 
		1589.625,792 1590.5,791.208 1591,790.958 1591.208,790 1590.906,789.563 1590.906,789.031 1590.156,788.497 1589.344,788.497 
		1588.906,789.172 1588.219,789.172 1587.469,788.188 1586.938,788.094 1586.875,787.531 1587.313,787.156 1588,787.156 
		1587.969,786.594 1587.531,786.343 1587.719,785.844 1587.688,785.281 1586.719,784.469 1584,784.438 1583.5,784.125 
		1583.5,783.719 1583.969,783 1583.906,782.406 1582.656,782.406 1581.719,782.719 1580.906,783.063 1580.5,783.375 
		1580.469,784.613 1580.563,785.5 1580.094,786.063 1580.031,786.938 1579.625,787.563 1579.813,788.906 1578.875,789.236 
		1578.208,791.792 	"/>
	<polygon fill="#F9B120" stroke="#000000" stroke-width="0.2" stroke-miterlimit="10" points="1485.017,778.916 1484.292,778.417 
		1482.667,778.75 1481.583,779.583 1480.583,779.583 1480.292,778.417 1481.375,777.583 1484.208,776.792 1484.016,776.208 
		1483.375,776.208 1482.375,776.417 1481.583,776.917 1481.042,776.594 1481.042,775.75 1481.5,775.25 1480.958,774.667 
		1479.667,774.992 1479.292,774.667 1479.833,773.875 1479.542,773.333 1480.042,772.792 1480.875,773.042 1481.542,772.417 
		1482.203,771.458 1483.375,771.458 1484.016,770.833 1485.5,770.833 1486.208,771.333 1487.25,771.542 1488.664,771.875 
		1489.172,771.417 1489.172,770.125 1488.313,769.792 1488.125,768.5 1491.458,765.333 1492,764.75 1492.875,764.75 
		1493.542,765.583 1494.156,766.25 1494.708,766.583 1495.792,764.75 1496.292,764.333 1496.833,763.958 1497.167,764.75 
		1497.508,764.75 1497.156,765.125 1496.656,765.969 1496.469,767.406 1496.406,768.625 1495.219,770.656 1494.813,772.156 
		1494.813,773.094 1495.25,773.344 1495.125,773.719 1494.813,774.094 1494.813,774.656 1495.125,775 1495.219,775.688 
		1494.813,776 1493.875,777.094 1493.063,776.594 1490.625,776.594 1490.125,777.281 1487.516,777.25 1486.188,777.875 	"/>
	<polygon fill="#F9B120" stroke="#000000" stroke-width="0.2" stroke-miterlimit="10" points="1557.094,777.219 1557.094,777.969 
		1556.792,778.878 1557.208,779.5 1556.792,780.5 1557.021,781.854 1557.438,782.729 1556.938,783.917 1557.479,784.613 
		1558.125,784.208 1558.683,784.104 1558.683,785.083 1558.333,785.583 1558.542,786.146 1558.229,786.563 1557.583,786.938 
		1557.521,787.625 1558.479,788.208 1559.646,788.271 1562.896,792.042 1563.542,791.875 1564.167,792.297 1565.354,795.125 
		1565.75,795 1565.854,794.417 1566.458,794.646 1567.396,794.021 1568.667,794.104 1568.667,792.667 1569.146,791.813 
		1568.438,791.313 1568.333,790.354 1570.5,788.497 1570.208,787.458 1571.021,786.875 1571.313,786.188 1571.5,785.083 
		1572.083,784.354 1572.083,783.604 1571.75,783.354 1572.083,782.271 1571.625,782.167 1571.5,781.521 1572.333,781.333 
		1572.333,780.729 1571.333,779.792 1571.25,778.878 1570.708,778.75 1570,779.342 1568.094,779.156 1566.688,778.878 
		1565.344,778.878 1564.844,778.75 1563.5,778.031 1562.688,778.063 1560.156,778.75 1559.531,777.417 1557.448,776.656 
		1557.094,776.5 	"/>
	<polygon fill="#F9B120" stroke="#000000" stroke-width="0.2" stroke-miterlimit="10" points="1585.167,784.451 1585.458,784.455 
		1586.719,784.469 1587.688,785.281 1587.719,785.844 1587.531,786.343 1587.969,786.594 1588,787.156 1587.313,787.156 
		1586.875,787.531 1586.938,788.094 1587.469,788.188 1588.219,789.172 1588.906,789.172 1589.344,788.497 1590.156,788.497 
		1590.906,789.031 1591.667,789.833 1592.583,789.833 1593.167,788.667 1593.583,787.458 1593.25,786.343 1592.792,785.813 
		1593.583,785.292 1593.333,784.792 1594.125,784.042 1594.125,783.125 1595.083,782.406 1595.083,781.375 1594.292,780.875 
		1592.833,782.406 1591.5,782.406 1590.542,783.75 1589.167,783.833 1587.917,782.875 1585.542,781.667 1583.583,781.5 
		1581.458,781.083 1580.688,781.083 1580.688,781.531 1581.375,782.125 1581.719,782.719 1582.656,782.406 1584.042,782.406 
		1583.969,783 1583.5,783.719 1583.5,784.125 1584,784.438 	"/>
	<polygon fill="#F9B120" stroke="#000000" stroke-width="0.2" stroke-miterlimit="10" points="1536.708,767.943 1536.167,770.167 
		1534.5,770.167 1533.75,771 1534.417,772.417 1535.969,773.109 1536.375,774.5 1536.604,776.125 1537.979,776.896 
		1538.042,777.604 1537.125,777.604 1536.917,777.208 1535.625,777.146 1535.396,777.5 1535.396,778.021 1535.813,778.042 
		1535.938,777.667 1536.333,777.646 1536.75,777.958 1536.75,779.021 1537.583,779.083 1537.979,779.688 1538.917,779.771 
		1539.25,780.438 1539.34,780.799 1539.521,781.521 1540.104,781.396 1540.167,780.729 1540.729,780.896 1540.87,779.875 
		1541.594,778.878 1542.25,777.656 1541.5,776.844 1542.25,776.031 1543.688,776.063 1543.844,775.322 1545.125,774.688 
		1545.75,773.969 1545.75,773.094 1546.531,772.417 1546.688,771.656 1547.344,771.188 1547.344,770.188 1547.25,769.656 
		1546.672,769.531 1546.625,768.719 1547.344,768.406 1547.688,767.813 1545.339,767.991 1544.964,768.038 1544.748,768.083 
		1543.436,767.989 1543.148,768.042 1542.792,768.021 1542.25,767.999 1541.458,767.874 1540.78,767.874 1540.107,767.952 
		1539.34,767.943 1538.875,767.943 1538.321,767.943 1537.166,767.974 	"/>
</g>
<g id="Португалия">
	<polygon fill="#5FB130" stroke="#000000" stroke-width="0.2" stroke-miterlimit="10" points="1499.641,797.403 1499.641,798.919 
		1499.141,799.981 1499.141,800.466 1498.813,800.591 1497.578,800.606 1496.875,801.028 1497.016,802.669 1496.922,803.763 
		1496.406,804.106 1496.172,804.403 1495.297,804.841 1494.708,805.362 1494.708,806.153 1494.938,806.487 1495.031,807.091 
		1494.708,807.528 1494.828,808.075 1495.516,808.075 1496.234,807.685 1496.813,807.138 1497.375,806.575 1498.016,806.231 
		1498.844,806.153 1499.359,806.247 1499.719,806.669 1499.891,807.106 1500.484,807.341 1501.5,807.356 1501.875,807.466 
		1502.656,807.81 1502.984,807.935 1503.516,807.966 1503.875,807.763 1504.016,807.341 1504.016,806.757 1503.688,806.356 
		1503.516,806.153 1503.594,805.763 1503.938,805.591 1504.016,804.903 1503.734,804.794 1503.656,804.513 1503.734,804.263 
		1503.766,803.247 1503.609,802.575 1503.75,802.028 1503.813,801.341 1503.453,800.638 1503.063,800.106 1502.859,799.856 
		1502.688,799.716 1502.734,799.466 1503.094,799.466 1503.625,799.388 1504.016,799.341 1504.25,798.966 1504.25,798.403 
		1503.453,798.388 1502.469,798.466 1501.813,797.544 1501.531,797.122 1501.172,797.122 1501,797.497 1500.297,797.575 	"/>
	<polygon fill="#5FB130" stroke="#000000" stroke-width="0.2" stroke-miterlimit="10" points="1497.125,840.153 1496.469,840.528 
		1495.469,840.528 1494.625,840.935 1494,840.935 1493.188,841.541 1492.469,841.541 1491.938,842.091 1490.719,842.247 
		1490,841.541 1488.438,841.341 1487.469,841.685 1486.031,841.685 1485.313,841.778 1484.906,841.2 1484.313,841.2 
		1483.844,840.966 1483.625,841.81 1483.313,842.247 1483.313,843.153 1482.781,843.841 1482.781,844.435 1482.125,845.122 
		1482.375,845.497 1482.813,845.497 1483.344,845.341 1483.969,844.997 1484.875,844.966 1485.188,844.778 1485.313,844.372 
		1485.594,844.278 1485.875,844.591 1486.625,844.622 1487.031,844.903 1488.281,844.841 1488.531,845.028 1489.031,845.091 
		1489.281,844.966 1491.094,844.966 1491.938,845.247 1492.656,845.653 1492.844,845.31 1493.465,845.31 1493.688,845.185 
		1495.188,845.216 1495.594,844.997 1495.75,844.591 1496.281,844.372 1496.938,844.278 1497.281,843.966 1497.719,843.903 
		1497.719,843.31 1497.625,842.747 1497.594,842.028 1497.313,841.685 1497.406,840.997 	"/>
	<polygon fill="#5FB130" stroke="#000000" stroke-width="0.2" stroke-miterlimit="10" points="1483.844,840.966 1483.844,840.153 
		1484.031,839.653 1483.844,839.247 1483.844,838.466 1484.031,838.153 1484.5,838.153 1484.688,837.622 1484.266,837.31 
		1483.844,837.185 1483.844,836.622 1484.469,836.622 1485.063,836.966 1485.344,836.966 1485.844,837.372 1486.625,837.372 
		1487.281,836.903 1487.969,836.091 1488.813,835.935 1489.406,835.716 1489.75,835.091 1489.406,834.216 1488.969,834.06 
		1488.969,833.497 1489.469,833.06 1490.219,832.685 1490.969,832.216 1491.25,831.403 1491.25,830.966 1493.465,831.153 
		1493.781,831.435 1493.938,831.737 1494.344,831.935 1495.219,831.935 1495.594,832.091 1496,832.247 1496.75,832.247 
		1497.125,832.591 1497.719,832.591 1498.344,832.403 1498.906,831.528 1499.625,831.403 1500.281,831.403 1500.875,832.278 
		1501.5,832.778 1502.063,832.497 1502.438,832.278 1502.688,831.737 1502.938,831.737 1502.781,832.778 1502.469,833.247 
		1502.344,833.747 1500.938,833.903 1500.688,834.216 1499.906,834.31 1499.656,835.249 1499.031,836.966 1498.281,837.825 
		1497.938,838.544 1497.516,839.091 1497.375,839.669 1497.125,840.153 1496.469,840.528 1495.453,840.481 1494.625,840.935 
		1493.958,840.966 1493.188,841.541 1492.469,841.541 1491.938,842.091 1490.719,842.247 1490,841.541 1488.438,841.341 
		1487.469,841.685 1486.031,841.685 1485.313,841.778 1484.922,841.247 1484.313,841.2 	"/>
	<polygon fill="#5FB130" stroke="#000000" stroke-width="0.2" stroke-miterlimit="10" points="1487.438,825.2 1487.438,826.169 
		1486.734,826.778 1486.406,827.278 1486.516,827.903 1487.234,828.247 1488.016,828.367 1488.609,828.544 1489.172,829.263 
		1489.656,829.981 1490.359,830.497 1491.25,830.966 1493.465,831.153 1493.781,831.435 1493.938,831.737 1494.344,831.935 
		1495.219,831.935 1495.594,832.091 1496,832.247 1496.75,832.247 1497.125,832.591 1497.719,832.591 1498.344,832.403 
		1498.906,831.528 1500.281,831.403 1500.396,831.132 1500.292,830.487 1499.917,829.737 1499.583,829.507 1499.438,828.278 
		1499.833,827.82 1499.896,827.195 1500.021,826.612 1500.583,826.112 1500.708,825.674 1501.271,825.341 1501.271,824.903 
		1500.813,824.757 1500.292,824.487 1499.333,824.32 1498.875,824.32 1498.021,823.841 1497.5,823.278 1496.917,823.278 
		1496,823.778 1494.083,823.799 1493.729,823.424 1493,823.278 1492.542,823.007 1491.688,823.007 1491.5,822.57 1490.5,822.57 
		1490.354,823.007 1490.479,823.841 1491.042,824.528 1491.021,825.195 1490.333,825.195 1489.646,824.669 1488.979,824.669 	"/>
	<polygon fill="#5FB130" stroke="#000000" stroke-width="0.2" stroke-miterlimit="10" points="1501.271,824.903 1500.813,824.757 
		1500.292,824.487 1499.333,824.32 1498.875,824.32 1498.021,823.841 1497.5,823.278 1496.917,823.278 1496,823.778 
		1494.083,823.799 1493.729,823.424 1493,823.278 1492.542,823.007 1491.688,823.007 1491.5,822.57 1490.5,822.57 1490.354,822.299 
		1490.229,822.049 1489.938,822.049 1489.583,821.486 1489.583,821.132 1490.125,820.799 1490.813,820.278 1491.167,819.778 
		1491.854,819.612 1492.313,819.222 1492.854,818.737 1493.021,817.799 1492.771,817.112 1492.917,816.632 1493.839,816.632 
		1494.521,816.716 1495.125,816.237 1495.427,815.466 1496.729,815.466 1496.854,815.862 1497.271,816.067 1497.5,816.499 
		1497.813,816.499 1497.925,816.778 1498.688,816.862 1499.083,817.257 1499.083,819.007 1499.669,819.222 1499.708,819.612 
		1499.708,820.299 1499.958,820.424 1500.5,820.799 1500.771,821.57 1500.958,821.653 1502.313,821.695 1502.417,821.966 
		1502.417,822.757 1501.875,823.257 1501.792,824.445 	"/>
	<polygon fill="#5FB130" stroke="#000000" stroke-width="0.2" stroke-miterlimit="10" points="1482.203,824.669 1482.609,825.106 
		1482.688,825.481 1483.266,825.606 1483.844,825.591 1484.281,825.435 1485.234,825.481 1485.844,825.013 1486.469,824.981 
		1486.813,825.2 1487.438,825.2 1488.979,824.669 1489.646,824.669 1490.333,825.195 1491.021,825.195 1491.042,824.528 
		1490.479,823.841 1490.354,823.007 1490.5,822.57 1490.229,822.049 1489.938,822.049 1489.583,821.486 1489.583,821.132 
		1490.813,820.278 1491.167,819.778 1491.854,819.612 1492.854,818.737 1493.021,817.799 1492.771,817.112 1492.917,816.632 
		1493.839,816.632 1494.521,816.716 1495.125,816.237 1494.203,815.247 1493.734,814.638 1493.047,814.216 1492.578,814.216 
		1492.172,814.81 1492,815.356 1491.406,815.466 1491.094,815.231 1490.719,815.216 1490.328,814.794 1489.797,813.716 
		1488.219,813.716 1487.953,813.466 1487.5,813.466 1487.172,813.653 1486.484,813.763 1486.25,814.091 1486.016,814.841 
		1485.813,815.231 1485.875,816.106 1485.688,816.499 1485.344,816.966 1483.703,817.716 1483.375,818.263 1482.938,818.966 
		1482.891,819.536 1483.234,819.95 1484.234,820.263 1484.344,820.528 1484.234,821.075 1484.672,821.669 1484.719,822.106 
		1483.391,822.825 1482.844,823.153 1482.422,823.591 1482.203,824.185 	"/>
	<polygon fill="#5FB130" stroke="#000000" stroke-width="0.2" stroke-miterlimit="10" points="1482.246,824.068 1482.422,823.591 
		1482.844,823.153 1484.719,822.106 1484.672,821.669 1484.234,821.075 1484.344,820.528 1484.234,820.263 1483.234,819.95 
		1482.891,819.536 1480.893,819.536 1480.729,819.425 1480.372,819.425 1480.081,819.536 1479.561,819.536 1479.018,819.536 
		1478.729,819.675 1478.831,819.883 1478.729,820.529 1478.729,821.238 1478.018,822.57 1478.018,823.675 1477.518,824.903 
		1477.518,825.779 1477.604,826.279 1477.854,826.425 1478.372,826.321 1478.811,826.425 1479.539,826.342 1479.811,826.175 
		1480.539,826.238 1480.936,825.925 1481.118,825.821 1481.311,825.05 1481.854,824.238 	"/>
	<polygon fill="#5FB130" stroke="#000000" stroke-width="0.2" stroke-miterlimit="10" points="1496.729,815.466 1495.427,815.466 
		1495.125,816.237 1494.203,815.247 1493.734,814.638 1493.047,814.216 1492.578,814.216 1492.172,814.81 1492,815.356 
		1491.406,815.466 1491.094,815.231 1490.719,815.216 1490.328,814.794 1489.797,813.716 1489.797,813.2 1490.031,812.606 
		1490.641,812.185 1491.469,811.341 1492.234,811.341 1492.484,811.169 1493.263,811.169 1494.375,810.669 1494.859,810.466 
		1495.016,810.138 1495.031,809.481 1494.719,808.981 1494.75,808.372 1494.828,808.075 1495.516,808.075 1496.234,807.685 
		1496.813,807.138 1497.375,806.575 1498.016,806.231 1498.844,806.153 1499.359,806.247 1499.719,806.669 1499.891,807.106 
		1500.484,807.341 1501.5,807.356 1501.875,807.466 1502.656,807.81 1502.984,807.935 1502.841,808.294 1502.063,808.747 
		1501.953,809.481 1502.203,810.013 1502.672,810.388 1503.172,810.997 1503.078,811.513 1502.938,812.403 1502.672,813.169 
		1502.203,813.466 1502.219,814.185 1502.031,814.669 1501.766,815.185 1499.531,815.153 1499.391,815.341 1497.078,815.278 	"/>
	<polygon fill="#5FB130" stroke="#000000" stroke-width="0.2" stroke-miterlimit="10" points="1478.729,819.675 1479.018,819.536 
		1480.081,819.536 1480.372,819.425 1480.729,819.425 1480.893,819.536 1482.891,819.536 1482.938,818.966 1483.703,817.716 
		1485.344,816.966 1485.53,816.664 1485.875,816.106 1485.813,815.231 1486.016,814.841 1486.25,814.091 1486.484,813.763 
		1487.172,813.653 1487.5,813.466 1487.953,813.466 1488.219,813.716 1489.797,813.716 1489.797,813.2 1490.031,812.606 
		1490.641,812.185 1491.469,811.341 1491.219,811.106 1491.203,810.513 1491.063,810.231 1490.828,810.231 1490.594,810.653 
		1490.125,810.856 1489.922,811.435 1489.5,811.731 1489.109,811.7 1488.75,811.419 1488.047,811.435 1487.625,811.091 
		1487.281,810.919 1486.406,810.872 1485.844,810.638 1485.098,810.591 1484.719,810.81 1483.75,810.81 1483.438,810.622 
		1482.969,811.763 1482.719,812.747 1482.563,813.106 1482.344,813.466 1482.328,813.903 1482.203,814.2 1482.203,814.841 
		1481.719,815.685 1481.531,815.856 1481.469,816.499 1481.297,817.044 1480.703,817.466 1480.313,817.653 1480.313,817.935 
		1480.531,818.388 1480.328,818.56 1479.906,818.638 1479.828,818.356 1479.484,818.388 1479.281,818.716 1478.422,818.747 
		1478.188,819.028 1478.438,819.356 	"/>
	<polygon fill="#5FB130" stroke="#000000" stroke-width="0.2" stroke-miterlimit="10" points="1483.438,810.622 1483.75,810.81 
		1484.719,810.81 1485.098,810.591 1485.844,810.638 1486.406,810.872 1487.281,810.919 1487.625,811.091 1488.047,811.435 
		1488.75,811.419 1489.109,811.7 1489.5,811.731 1489.922,811.435 1490.125,810.856 1490.594,810.653 1490.828,810.231 
		1491.063,810.231 1491.203,810.513 1491.219,811.106 1491.469,811.341 1492.234,811.341 1492.484,811.169 1493.263,811.169 
		1494.859,810.466 1495.016,810.138 1495.031,809.481 1494.719,808.981 1494.828,808.075 1494.708,807.528 1495.031,807.091 
		1494.938,806.487 1494.708,806.153 1494.708,805.362 1494.375,805.362 1492.958,806.153 1492.167,806.716 1490.979,806.757 
		1490.542,806.341 1489.917,806.341 1488.938,806.757 1488.664,807.32 1488.479,807.57 1488.063,807.466 1487.958,807.007 
		1487.979,806.257 1487.75,805.934 1487.333,805.799 1486.021,805.841 1485.688,805.632 1484.583,805.591 1484.063,806.259 
		1483.688,807.571 1483.667,808.28 1483.333,808.946 1483.271,809.481 1483.521,809.78 	"/>
	<polygon fill="#5FB130" stroke="#000000" stroke-width="0.2" stroke-miterlimit="10" points="1492,799.262 1491.708,799.824 
		1490.979,800.303 1490.875,800.908 1489.797,801.762 1489.583,802.345 1489.688,802.949 1489.917,803.428 1489.917,804.116 
		1489.688,804.803 1489.688,805.803 1489.917,806.341 1490.542,806.341 1490.979,806.757 1492.167,806.716 1492.958,806.153 
		1494.375,805.362 1494.708,805.362 1495.297,804.841 1496.172,804.403 1496.406,804.106 1496.922,803.763 1497.016,802.669 
		1496.875,801.028 1497.578,800.606 1498.813,800.591 1499.141,800.466 1499.141,799.981 1499.641,798.919 1499.641,797.403 
		1498.969,797.028 1498.594,796.685 1497.391,796.685 1495.781,796.981 1495.109,796.997 1494.344,797.263 1493.625,797.341 
		1493.465,798.356 1492.766,798.763 1492.406,799.185 	"/>
	<polygon fill="#5FB130" stroke="#000000" stroke-width="0.2" stroke-miterlimit="10" points="1493.625,797.341 1493.465,798.356 
		1492.766,798.763 1492.406,799.185 1492,799.262 1491.469,799.262 1490.875,799.074 1489.797,798.908 1489.151,798.699 
		1485.729,798.699 1485.641,798.2 1485.391,797.856 1485.281,797.122 1485.281,796.497 1484.984,795.981 1484.984,794.466 
		1484.625,793.653 1484.984,793.513 1485.578,793.513 1486.141,793.997 1486.438,794.325 1486.641,794.903 1487.203,795.216 
		1488.5,795.263 1488.938,795.06 1491.594,794.997 1492,795.138 1492.766,795.122 1493.281,795.388 1493.719,795.935 	"/>
	<polygon fill="#5FB130" stroke="#000000" stroke-width="0.2" stroke-miterlimit="10" points="1492.766,795.122 1492,795.138 
		1491.594,794.997 1488.938,795.06 1488.5,795.263 1487.203,795.216 1486.641,794.903 1486.438,794.325 1485.578,793.513 
		1484.984,793.513 1484.859,793.169 1484.719,792.638 1486.969,791.481 1487.094,791.216 1488.266,790.544 1488.359,790.356 
		1488.875,790.481 1490.047,789.966 1490.281,789.966 1490.469,790.31 1490.688,790.325 1490.781,790.622 1491.219,790.622 
		1491.516,790.294 1492,790.091 1492,790.794 1492.531,791.153 1492.844,791.294 1493.063,791.778 1493.391,792.091 
		1494.156,792.06 1494.156,792.513 1493.719,793.216 1493.641,793.513 1493.344,793.747 1493.219,794.231 1492.938,794.591 	"/>
	<polygon fill="#5FB130" stroke="#000000" stroke-width="0.2" stroke-miterlimit="10" points="1484.719,792.638 1484.328,791.95 
		1484.016,791.653 1484.125,791.091 1484.016,790.419 1484.531,789.966 1484.516,789.716 1485.359,788.747 1485.922,788.669 
		1486.5,788.075 1487.297,788.075 1487.625,787.731 1489.172,787.622 1489.438,787.481 1489.672,787.56 1489.844,787.263 
		1490.141,786.862 1490.234,787.388 1490.859,787.591 1491.016,788.028 1490.219,788.481 1489.844,789.044 1489.828,789.638 
		1490.047,789.966 1488.875,790.481 1488.344,790.31 1488.266,790.544 1487.094,791.216 1486.969,791.481 	"/>
	<polygon fill="#5FB130" stroke="#000000" stroke-width="0.2" stroke-miterlimit="10" points="1482.688,825.481 1483.266,825.606 
		1483.844,825.591 1484.281,825.435 1485.234,825.481 1485.844,825.013 1486.469,824.981 1486.813,825.2 1487.438,825.2 
		1487.438,826.169 1486.734,826.778 1486.406,827.278 1486.516,827.903 1487.234,828.247 1488.016,828.367 1488.609,828.544 
		1489.656,829.981 1490.359,830.497 1491.25,830.966 1491.25,831.403 1490.969,832.216 1490.219,832.685 1489.469,833.06 
		1488.969,833.497 1488.969,834.06 1489.406,834.216 1489.75,835.091 1489.406,835.716 1488.813,835.935 1487.969,836.091 
		1487.281,836.903 1486.625,837.372 1485.844,837.372 1485.344,836.966 1485.063,836.966 1484.469,836.622 1483.844,836.622 
		1484.094,835.75 1483.844,835.563 1483.844,834.844 1484.156,834.625 1484.094,833.375 1484.25,833 1484.031,832.591 
		1484.031,832.188 1484.156,831.656 1484.594,831.177 1484.5,830.75 1484.156,830.375 1484.469,830.188 1484.828,829.563 
		1485.031,829.219 1485.281,829.156 1485.719,829.281 1486.188,829.375 1486.594,829.219 1486.594,828.625 1486.094,828.5 
		1485.938,828.063 1485.875,827.58 1485.844,826.938 1485.469,826.75 1485.156,826.938 1485.031,827.438 1484.969,828.094 
		1484.969,828.531 1484.531,828.281 1484.25,828.094 1483.844,828.125 1483.531,828.406 1483.271,828.906 1482.469,829.25 
		1481.594,829.281 1481.118,829.375 1480.344,829.469 1480.844,828.688 1480.844,828.063 1480.344,827.469 1479.531,827.58 
		1480,827.156 1480.781,826.938 1481.118,826.552 1481.688,826.031 1482.203,825.606 	"/>
	<polygon fill="#5FB130" stroke="#000000" stroke-width="0.2" stroke-miterlimit="10" points="1485.729,798.699 1489.151,798.699 
		1489.797,798.908 1490.875,799.074 1491.469,799.262 1492,799.262 1491.708,799.824 1490.979,800.303 1490.875,800.908 
		1489.797,801.762 1489.583,802.345 1489.688,802.949 1489.917,803.428 1489.917,804.116 1489.688,804.803 1489.688,805.803 
		1489.917,806.341 1488.938,806.757 1488.664,807.32 1488.479,807.57 1488.063,807.466 1487.958,807.007 1487.979,806.257 
		1487.75,805.934 1487.333,805.799 1486.021,805.841 1485.688,805.632 1485.25,805.297 1484.625,805.234 1484.828,804.75 
		1484.828,804.094 1484.625,803.547 1485.844,803.688 1485.703,803.135 1485.734,802.75 1485.953,802.342 1485.891,802.063 
		1485.844,801.721 1485.781,801.391 1485.984,801.016 1486.313,800.859 1486.328,800.469 1486.063,800.188 1485.844,800.141 
		1485.422,800.141 1485.266,801.031 1485.406,801.266 1485.469,801.721 1485.313,802.094 1485.016,802.342 1484.719,802.342 
		1484.625,801.906 1484.719,801.453 1484.953,801.078 1485.156,800.047 1485.047,799.797 1485.156,799.422 1485.391,798.984 	"/>
	<polygon fill="#5FB130" stroke="#000000" stroke-width="0.2" stroke-miterlimit="10" points="1492,790.091 1492,790.794 
		1492.531,791.153 1492.844,791.294 1493.063,791.778 1493.391,792.091 1494.156,792.06 1494.156,792.513 1493.719,793.216 
		1493.641,793.513 1493.344,793.747 1493.219,794.231 1492.938,794.591 1492.766,795.122 1493.281,795.388 1493.719,795.935 
		1493.625,797.341 1494.344,797.263 1495.109,796.997 1495.781,796.981 1497.391,796.685 1498.594,796.685 1498.688,796.247 
		1498.891,795.888 1498.891,794.263 1499.047,793.997 1499.047,793.716 1499.406,793.294 1499.479,793.028 1499.891,792.638 
		1499.891,792.356 1500.016,792.185 1500.016,791.2 1499.797,790.935 1499.781,789.966 1499.479,789.966 1499.266,790.106 
		1498.5,790.044 1498.172,790.263 1497.797,790.263 1497.266,789.75 1496.969,789.856 1496.844,790.528 1496.578,790.622 
		1496.25,790.481 1496.008,789.856 1495.734,789.638 1495.109,789.966 1494.391,790.06 1493.844,790.122 1493.203,790.31 
		1493.174,789.966 1493.063,789.513 1492.703,789.685 1492.625,789.966 	"/>
	<polygon fill="#5FB130" stroke="#000000" stroke-width="0.2" stroke-miterlimit="10" points="1499.781,789.966 1499.797,790.935 
		1500.016,791.2 1500.016,792.185 1499.891,792.356 1499.891,792.638 1499.479,793.028 1499.406,793.294 1499.047,793.716 
		1499.047,793.997 1498.891,794.263 1498.891,795.888 1498.688,796.247 1498.594,796.685 1498.969,797.028 1499.641,797.403 
		1500.297,797.575 1501,797.497 1501.172,797.122 1501.531,797.122 1502.469,798.466 1503.453,798.388 1504.25,798.403 
		1504.547,797.95 1505.063,797.575 1505.313,797.06 1506.047,797.044 1506.531,796.903 1506.922,796.387 1507.766,795.544 
		1508.309,795.263 1508.375,794.888 1508.875,794.513 1509.156,793.872 1509.156,793.044 1508.922,792.466 1508.594,792.325 
		1508.172,791.794 1507.281,791.903 1506.891,792.185 1506.234,792.122 1506.172,791.497 1506.281,791.075 1506.328,790.544 
		1506.563,790.106 1506.531,789.685 1506.266,789.606 1506.156,789.247 1506.234,788.716 1505.906,788.638 1505.547,788.856 
		1504.922,788.903 1504.25,788.778 1504.125,788.497 1503.688,788.497 1503.375,788.825 1502.841,788.888 1502.406,788.716 
		1501.844,788.825 1501.234,788.81 1500.85,788.497 1500.359,788.622 1500.203,788.981 1500.156,789.591 	"/>
	<polygon fill="#5FB130" stroke="#000000" stroke-width="0.2" stroke-miterlimit="10" points="1324.823,834.75 1324.198,834.75 
		1323.698,835.469 1323.698,836.656 1324.604,837.125 1326.073,837.125 1326.792,837.438 1329.042,837.438 1329.698,836.938 
		1330.292,836.656 1330.292,834.75 1329.823,834.5 1328.917,834.906 1328.042,835.469 1327.261,835.219 1326.667,835.25 
		1325.386,835.313 	"/>
	<polygon fill="#5FB130" stroke="#000000" stroke-width="0.2" stroke-miterlimit="10" points="1310.886,826.292 1312.032,826.042 
		1312.49,825.313 1312.323,824.125 1311.688,823.604 1309.719,823.604 1309.032,823.771 1308.907,825.125 1309.823,826.021 	"/>
	<polygon fill="#5FB130" stroke="#000000" stroke-width="0.2" stroke-miterlimit="10" points="1301.636,824.948 1303.042,825.5 
		1304.042,826.156 1304.698,827.125 1304.323,827.719 1303.167,826.875 1301.636,826.333 1301.229,825.5 	"/>
	<polygon fill="#5FB130" stroke="#000000" stroke-width="0.2" stroke-miterlimit="10" points="1301.979,829.469 1300.448,829.75 
		1299.917,829.156 1298.979,828.531 1298.136,828.031 1297.917,826.938 1298.667,826.469 1299.761,826.656 1300.511,827.344 
		1300.667,828.109 1301.573,828.563 1302.136,829 	"/>
	<polygon fill="#5FB130" stroke="#000000" stroke-width="0.2" stroke-miterlimit="10" points="1410.833,893.021 1410.729,894 
		1410.167,894.167 1409.979,894.563 1407.833,894.708 1407.375,894.188 1406.917,894.063 1406.167,893.458 1405.396,893.313 
		1405.083,892.646 1405.604,892.458 1406.125,892.021 1407.042,891.729 1407.063,892.458 1408.292,892.521 1408.417,891.729 
		1409.292,891.958 1409.354,892.458 1410.271,892.5 	"/>
</g>
</svg>
